{
    "accessors" : [
        {
            "bufferView" : 0,
            "componentType" : 5123,
            "count" : 69756,
            "max" : [
                12489
            ],
            "min" : [
                0
            ],
            "type" : "SCALAR"
        },
        {
            "bufferView" : 1,
            "componentType" : 5126,
            "count" : 12490,
            "max" : [
                97.58157348632812,
                -189.24032592773438,
                2.9222590923309326
            ],
            "min" : [
                -61.37097930908203,
                -199.24032592773438,
                -172.9586944580078
            ],
            "type" : "VEC3"
        },
        {
            "bufferView" : 2,
            "componentType" : 5126,
            "count" : 12490,
            "max" : [
                0.999969482421875,
                1.0,
                0.999969482421875
            ],
            "min" : [
                -0.999969482421875,
                -1.0,
                -0.999969482421875
            ],
            "type" : "VEC3"
        },
        {
            "bufferView" : 3,
            "componentType" : 5126,
            "count" : 12490,
            "max" : [
                0.9999740719795227,
                1.0,
                0.9999964237213135,
                1.0
            ],
            "min" : [
                -0.9999739527702332,
                -1.0,
                -0.9999964237213135,
                -1.0
            ],
            "type" : "VEC4"
        },
        {
            "bufferView" : 4,
            "componentType" : 5126,
            "count" : 12490,
            "max" : [
                1.0,
                1.0
            ],
            "min" : [
                0.0,
                0.0
            ],
            "type" : "VEC2"
        },
        {
            "bufferView" : 5,
            "componentType" : 5123,
            "count" : 25296,
            "max" : [
                4346
            ],
            "min" : [
                0
            ],
            "type" : "SCALAR"
        },
        {
            "bufferView" : 6,
            "componentType" : 5126,
            "count" : 4347,
            "max" : [
                17.20930290222168,
                -189.24032592773438,
                -52.83943176269531
            ],
            "min" : [
                -22.98948860168457,
                -199.24032592773438,
                -112.83316040039062
            ],
            "type" : "VEC3"
        },
        {
            "bufferView" : 7,
            "componentType" : 5126,
            "count" : 4347,
            "max" : [
                0.99993896484375,
                0.999969482421875,
                0.999969482421875
            ],
            "min" : [
                -0.99993896484375,
                -0.999969482421875,
                -0.999969482421875
            ],
            "type" : "VEC3"
        },
        {
            "bufferView" : 8,
            "componentType" : 5126,
            "count" : 4347,
            "max" : [
                0.999943196773529,
                1.0,
                0.9999722838401794,
                1.0
            ],
            "min" : [
                -0.9999432563781738,
                -1.0,
                -0.9999722838401794,
                1.0
            ],
            "type" : "VEC4"
        },
        {
            "bufferView" : 9,
            "componentType" : 5126,
            "count" : 4347,
            "max" : [
                1.0,
                1.0
            ],
            "min" : [
                0.0,
                0.0
            ],
            "type" : "VEC2"
        },
        {
            "bufferView" : 10,
            "componentType" : 5123,
            "count" : 3660,
            "max" : [
                756
            ],
            "min" : [
                0
            ],
            "type" : "SCALAR"
        },
        {
            "bufferView" : 11,
            "componentType" : 5126,
            "count" : 757,
            "max" : [
                5.0,
                3.822527361307948e-08,
                5.0
            ],
            "min" : [
                -77.06490325927734,
                -383.6942138671875,
                -5.000002861022949
            ],
            "type" : "VEC3"
        },
        {
            "bufferView" : 12,
            "componentType" : 5126,
            "count" : 757,
            "max" : [
                0.999969482421875,
                1.0,
                1.0
            ],
            "min" : [
                -1.0,
                -0.7841730713844299,
                -1.0
            ],
            "type" : "VEC3"
        },
        {
            "bufferView" : 13,
            "componentType" : 5126,
            "count" : 757,
            "max" : [
                1.0,
                0.620974063873291,
                1.0,
                1.0
            ],
            "min" : [
                -1.0,
                -0.6213707327842712,
                -1.0,
                -1.0
            ],
            "type" : "VEC4"
        },
        {
            "bufferView" : 14,
            "componentType" : 5126,
            "count" : 757,
            "max" : [
                1.0,
                1.0
            ],
            "min" : [
                0.0,
                0.0
            ],
            "type" : "VEC2"
        }
    ],
    "asset" : {
        "generator" : "Khronos Blender glTF 2.0 exporter",
        "version" : "2.0"
    },
    "bufferViews" : [
        {
            "buffer" : 0,
            "byteLength" : 139512,
            "byteOffset" : 0,
            "target" : 34963
        },
        {
            "buffer" : 0,
            "byteLength" : 149880,
            "byteOffset" : 139512,
            "target" : 34962
        },
        {
            "buffer" : 0,
            "byteLength" : 149880,
            "byteOffset" : 289392,
            "target" : 34962
        },
        {
            "buffer" : 0,
            "byteLength" : 199840,
            "byteOffset" : 439272,
            "target" : 34962
        },
        {
            "buffer" : 0,
            "byteLength" : 99920,
            "byteOffset" : 639112,
            "target" : 34962
        },
        {
            "buffer" : 0,
            "byteLength" : 50592,
            "byteOffset" : 739032,
            "target" : 34963
        },
        {
            "buffer" : 0,
            "byteLength" : 52164,
            "byteOffset" : 789624,
            "target" : 34962
        },
        {
            "buffer" : 0,
            "byteLength" : 52164,
            "byteOffset" : 841788,
            "target" : 34962
        },
        {
            "buffer" : 0,
            "byteLength" : 69552,
            "byteOffset" : 893952,
            "target" : 34962
        },
        {
            "buffer" : 0,
            "byteLength" : 34776,
            "byteOffset" : 963504,
            "target" : 34962
        },
        {
            "buffer" : 0,
            "byteLength" : 7320,
            "byteOffset" : 998280,
            "target" : 34963
        },
        {
            "buffer" : 0,
            "byteLength" : 9084,
            "byteOffset" : 1005600,
            "target" : 34962
        },
        {
            "buffer" : 0,
            "byteLength" : 9084,
            "byteOffset" : 1014684,
            "target" : 34962
        },
        {
            "buffer" : 0,
            "byteLength" : 12112,
            "byteOffset" : 1023768,
            "target" : 34962
        },
        {
            "buffer" : 0,
            "byteLength" : 6056,
            "byteOffset" : 1035880,
            "target" : 34962
        }
    ],
    "buffers" : [
        {
            "byteLength" : 1041936,
            "uri" : "flower-2.bin"
        }
    ],
    "materials" : [
        {
            "name" : "Mat",
            "pbrMetallicRoughness" : {
                "baseColorFactor" : [
                    0.27503199987161153,
                    0.4960000112056733,
                    0.09423999926805493,
                    1.0
                ],
                "metallicFactor" : 0.0
            }
        },
        {
            "name" : "Mat.4",
            "pbrMetallicRoughness" : {
                "baseColorFactor" : [
                    0.6639999965429304,
                    0.5909599869096276,
                    0.29879999606013286,
                    1.0
                ],
                "metallicFactor" : 0.0
            }
        },
        {
            "name" : "Mat.6",
            "pbrMetallicRoughness" : {
                "baseColorFactor" : [
                    0.5760000314712528,
                    0.6144000144958497,
                    0.7679999942779538,
                    1.0
                ],
                "metallicFactor" : 0.0
            }
        }
    ],
    "meshes" : [
        {
            "name" : "Untitled.002",
            "primitives" : [
                {
                    "attributes" : {
                        "NORMAL" : 2,
                        "POSITION" : 1,
                        "TANGENT" : 3,
                        "TEXCOORD_0" : 4
                    },
                    "indices" : 0,
                    "material" : 2
                }
            ]
        },
        {
            "name" : "Untitled",
            "primitives" : [
                {
                    "attributes" : {
                        "NORMAL" : 7,
                        "POSITION" : 6,
                        "TANGENT" : 8,
                        "TEXCOORD_0" : 9
                    },
                    "indices" : 5,
                    "material" : 1
                }
            ]
        },
        {
            "name" : "Untitled.001",
            "primitives" : [
                {
                    "attributes" : {
                        "NORMAL" : 12,
                        "POSITION" : 11,
                        "TANGENT" : 13,
                        "TEXCOORD_0" : 14
                    },
                    "indices" : 10,
                    "material" : 0
                }
            ]
        }
    ],
    "nodes" : [
        {
            "name" : "Camera",
            "rotation" : [
                0.48170700669288635,
                0.3342514932155609,
                -0.21292175352573395,
                0.7816000580787659
            ],
            "scale" : [
                1.0,
                1.0,
                0.9999999403953552
            ],
            "translation" : [
                7.481131553649902,
                5.34366512298584,
                6.5076398849487305
            ]
        },
        {
            "name" : "CINEMA_4D_Editor",
            "rotation" : [
                0.21276389062404633,
                0.4816412329673767,
                -0.6743378639221191,
                0.5177081227302551
            ],
            "scale" : [
                0.009999999776482582,
                0.009999999776482582,
                0.009999999776482582
            ],
            "translation" : [
                2.8214988708496094,
                6.2666544914245605,
                6.701766014099121
            ]
        },
        {
            "mesh" : 2,
            "name" : "Deckfl\u00e4che_1",
            "rotation" : [
                0.3156925439834595,
                -0.6327229142189026,
                -0.6118655800819397,
                0.3544299006462097
            ],
            "translation" : [
                -30.14065170288086,
                -45.968284606933594,
                29.586862564086914
            ]
        },
        {
            "children" : [
                2,
                5,
                6
            ],
            "name" : "flower_2",
            "rotation" : [
                0.7071068286895752,
                0.0,
                -0.0,
                0.7071067094802856
            ],
            "scale" : [
                0.00521893473342061,
                0.00521893473342061,
                0.00521893473342061
            ],
            "translation" : [
                -0.24080345034599304,
                0.0,
                -0.1114838570356369
            ]
        },
        {
            "name" : "Lamp",
            "rotation" : [
                0.16907575726509094,
                0.7558802962303162,
                -0.27217137813568115,
                0.570947527885437
            ],
            "scale" : [
                1.0,
                1.0,
                0.9999999403953552
            ],
            "translation" : [
                4.076245307922363,
                5.903861999511719,
                -1.0054539442062378
            ]
        },
        {
            "mesh" : 0,
            "name" : "Sweep",
            "rotation" : [
                -0.4248461127281189,
                -0.03628025949001312,
                -0.16349782049655914,
                0.8896392583847046
            ],
            "scale" : [
                0.9999999403953552,
                1.0,
                1.0000001192092896
            ],
            "translation" : [
                70.2419662475586,
                181.97952270507812,
                -468.9068603515625
            ]
        },
        {
            "mesh" : 1,
            "name" : "Sweep_15",
            "rotation" : [
                -0.4248461127281189,
                -0.03628025949001312,
                -0.16349782049655914,
                0.8896392583847046
            ],
            "scale" : [
                0.9999999403953552,
                1.0,
                1.0000001192092896
            ],
            "translation" : [
                70.2419662475586,
                181.97952270507812,
                -468.9068603515625
            ]
        }
    ],
    "scene" : 0,
    "scenes" : [
        {
            "name" : "Scene",
            "nodes" : [
                3,
                1,
                4,
                0
            ]
        }
    ]
}
